
<global>
amp_veltrack=0
ampeg_release=0.50
</global>

<group>
group_label=Group_0-45
lpc_hicc1=42
lpc_locc1=0

<region>
hikey=G#2
hivel=127
lokey=G2
lovel=1
lpc=SJdXQij0A8PAWA5DMAzvwhqxnELXEgnCq7CBQbKbHcEicuhAYqpXQNY9BcFf7a5ACQp6wG+/Yj+FfKQ/AlX6vtduIEAZUvq/mFRfwDehj0A3xGLAQXsHQHtbh8DDs21A
lpc_rms=-25.94
pitch_keycenter=G#2
sample=Contrabassoon_trill_semitone_PP_G#3.opus
</region>

<region>
hikey=G#1
hivel=127
lokey=G1
lovel=1
lpc=V3A/Qs3I5cJr7eZCm0iywrMJa0KFP7vB4MUZQeHSW8EgkYtBkFMDwfeVmz8ucMk/5DeVwBGYSUBCEgpA+ae+wMCe0UAZLyLALPTLv1y6ib910jZAgepCwCNvEkAjT12+
lpc_rms=-27.03
pitch_keycenter=G#1
sample=Contrabassoon_trill_semitone_PP_G#2.opus
</region>

<region>
hikey=F#2
hivel=127
lokey=F2
lovel=1
lpc=CwTgQr8EaMNpqhVDIB3SwhRo/EJAy5DC24N2QuaGWcLRupBB2hISwQvC8UBtgIxBxEvowfG72ED/+5xAAdebwDwFNsCDVbpBMIcHwt3+vEGhdzfB4+GXQM8ARb/rm10+
lpc_rms=-24.36
pitch_keycenter=F#2
sample=Contrabassoon_trill_semitone_PP_F#3.opus
</region>

<region>
hikey=F#1
hivel=127
lokey=F1
lovel=1
lpc=dg10Qi+g6cIWIoxCgmZBwkeEYUJWFijC1SokQrlsA8KrFWZBQAeFQDIJS8EcC45BTI+mwdy3JUFHuIBA9TgRwQAdAkHyeczA3/hXP3ewSEBmFUA/go3LwA+Gb0BjG8E9
lpc_rms=-23.60
pitch_keycenter=F#1
sample=Contrabassoon_trill_semitone_PP_F#2.opus
</region>

<region>
hikey=E2
hivel=127
lokey=D#2
lovel=1
lpc=6vu2QmBYSsMfnTVDlpAbw20M/kLRxZDC6wVPQnjGoMECE4hAqKtWwahjjkFXdrDAE/0pwADLgcB7G4pAC86EwFGNrD4Uu4FAzWhqwHPCn0ASETnBIVikQX9PrcHcMBxB
lpc_rms=-24.43
pitch_keycenter=E2
sample=Contrabassoon_trill_semitone_PP_E3.opus
</region>

<region>
hikey=E1
hivel=127
lokey=D#1
lovel=1
lpc=SfybQtOtUcPc+W9DbEdFw+xIEkM3O6/CmLM2QtVww8FH8jdBi8QIwf1NL0F37nlAjiQ3wfUyF0ALnWtAtNKtwFstyD+lR3q+hJKLQFIeQz98gSTB2pO7QEtkbz8vTiO/
lpc_rms=-27.66
pitch_keycenter=E1
sample=Contrabassoon_trill_semitone_PP_E2.opus
</region>

<region>
hikey=D#4
hivel=127
lokey=C#3
lovel=1
lpc=tlyRQoZSOsNRrTxDp7j9wpNPmUJZNtLBOL5oQdU24MFpvh5BEGQ+QVLgC8Gz0DVBoW5GwSg29MCu+bFBKU9/wZOkzUBqOri/RDAxPcIUwL9fod8/AORDQHdS/sBrPI5A
lpc_rms=-27.94
pitch_keycenter=D3
sample=Contrabassoon_trill_semitone_PP_D4.opus
</region>

<region>
hikey=D2
hivel=127
lokey=C#2
lovel=1
lpc=ZiKOQmQ8OMPqrDhD4GfswhrZiUJTzdDB1MieQe0gAcLGjUxBy94wQcLDAsFRkyNBjCpkwbtIdL/7XBFBkWWTv3WUL8DI409A4vZkwJsNbUBwxWDAED62P8LAmcAbF5FA
lpc_rms=-27.29
pitch_keycenter=D2
sample=Contrabassoon_trill_semitone_PP_D3.opus
</region>

<region>
hikey=D1
hivel=127
lokey=C#1
lovel=1
lpc=twuUQsw7FsMFPNFCDUmgwl0Mq0LPL0rCSTMJQkWT1cG+DIBBAUqVwVbcikGksErBVezJQew7sMHUQh5BUwkhwUZbk0CUTGHAAtbtQKg6M8BTIhk/AsvfwFw2e0AwR6A/
lpc_rms=-24.25
pitch_keycenter=D1
sample=Contrabassoon_trill_semitone_PP_D2.opus
</region>

<region>
hikey=C3
hivel=127
lokey=B2
lovel=1
lpc=FsV5Qq3PC8MWYNdCxTqDwuL3ZUKics/B0tpiQdUYlsFDzIVBaoSNwXz1FkG/b1ZAlb4XvxETsD7LnWHAiYzsP2dfo8B8D2hA4evrP6p1qr/Cgi8/0CsfwCVTJr+zjwtA
lpc_rms=-31.28
pitch_keycenter=C3
sample=Contrabassoon_trill_semitone_PP_C4.opus
</region>

<region>
hikey=C2
hivel=127
lokey=B1
lovel=1
lpc=2NO6Qj6/WsM5vUNDDmsIw6O1wkIVllDCf1QrQgMYMcIrHCZCx+4UwRI0dsFr4X5BM8towcc40UD3IyrA1pVUwAEQMkCzRljAZlnZQExRxb//6lxA/AcuwSWTFEHsjB3A
lpc_rms=-26.34
pitch_keycenter=C2
sample=Contrabassoon_trill_semitone_PP_C3.opus
</region>

<region>
hivel=127
key=C1
lovel=1
lpc=nW2kQl6SPsNBejpDu6YYw0ds+EK9BqPCdsdlQjKKSsIs5BpCfSWpwUGnw0ApqKxABxEZwUKvh0FaNZfBwSk0QVHmbD/C3JrA61dwQHUmxL8AUYrALeG9QJgOGcHHH89A
lpc_rms=-23.25
sample=Contrabassoon_trill_semitone_PP_C2.opus
</region>

<region>
hikey=A#2
hivel=127
lokey=A2
lovel=1
lpc=ILTZQYi3VsL7XkJCVh8qwgVo6UGeqWzBDdQaQejAG8F7Yi1BsKAqwY9aJUH6I6rA8UsVPgoNgD7cYhdAo6umv52PpT9H8RE/0Bikv9d2Qz+9sLy/zuK8voZr3L9j5w1A
lpc_rms=-25.44
pitch_keycenter=A#2
sample=Contrabassoon_trill_semitone_PP_A#3.opus
</region>

<region>
hikey=A#1
hivel=127
lokey=A1
lovel=1
lpc=wtEXQlNMpMKud5lCostxwvLfGUImlYnB7NVEQfixb8FoSoxB5B5owf36Q0GRF7/A3QayPpc667/zOY5A6gxAwKRPMkDasqO/qUnIvxWe4j/MaUDAeCR4QFxVxMAB/odA
lpc_rms=-25.47
pitch_keycenter=A#1
sample=Contrabassoon_trill_semitone_PP_A#2.opus
</region>
</group>

<group>
group_label=Group_91-127
lpc_hicc1=84
lpc_locc1=43

<region>
hikey=G#2
hivel=127
lokey=G2
lovel=1
lpc=xhpRQqrS88Kxvt9CR9SfwptTO0KNRA7BYZ7DQGfZOsGZDXJBLxYqweg5gkDL8b7AszP2P2lx0L9KgpdAyE+GwC+otUDV7SrAkFwcwMmWAkAsJfw+25uCv6uJFMBPCR1A
lpc_rms=-20.75
pitch_keycenter=G#2
sample=Contrabassoon_trill_semitone_FF_G#3.opus
</region>

<region>
hikey=G#1
hivel=127
lokey=G1
lovel=1
lpc=rmIgQirEtsIPhKFCuLplwmB5IEI5pIvBfghLQZNzDcEBrn1AlwlfvpAjgcAv/S1AYtwEwA5kzT8T9wO/v1m/vwRfpUBDyVi+tWyKwO8Bqr5lybE/VtLrPR0Nv74ZEgY/
lpc_rms=-20.91
pitch_keycenter=G#1
sample=Contrabassoon_trill_semitone_FF_G#2.opus
</region>

<region>
hikey=F#2
hivel=127
lokey=F2
lovel=1
lpc=HbupQiwlQcOh3hhDPu7WwiZG30LE14XCAY01QoclLcKttKtB90HCwCqV3T+5kWhADwWSwCHpYMCGZgBBFh0TwRQOJ0BY9OlAN0MIwXgh3UCGvunAr+oUQZwgDcFkxltA
lpc_rms=-19.24
pitch_keycenter=F#2
sample=Contrabassoon_trill_semitone_FF_F#3.opus
</region>

<region>
hikey=F#1
hivel=127
lokey=F1
lovel=1
lpc=c6lSQrx83ML7cpJCyKETwsdyAUJt34XBlZ6GQR1IEsH8iEzA1PLeP66On8B/gwxBXmWXwOUJDD/LWglA32ytwEjgqkB0086/snaIv6n0hj/jlks/OTglv4fTsb9eW4Q/
lpc_rms=-20.47
pitch_keycenter=F#1
sample=Contrabassoon_trill_semitone_FF_F#2.opus
</region>

<region>
hikey=E2
hivel=127
lokey=D#2
lovel=1
lpc=O9J7Qv7tFcNhTQpD+rbKwvGKnEJnPDfCcckfQtJtBMI8yaFBMcyQwZc3mUG7cS7BfOBOP6ojmL+3aQC/lGjIv0VggECfiY6/NvYXP0zIPEA5+gLBA3hmQWAtiMFwe/ZA
lpc_rms=-19.67
pitch_keycenter=E2
sample=Contrabassoon_trill_semitone_FF_E3.opus
</region>

<region>
hikey=E1
hivel=127
lokey=D#1
lovel=1
lpc=kVZUQjPI+cL26t5CatmbwirgeEL/qh3CmCb5QWsAbcEkZ2K/R4agwJNAvUBbCaI/TghYP0SW1MCVEtNAR8zUwO4pD0FmXxLBZkHIQEubQsCtx5ZAc8rNwDRnNUB50z2+
lpc_rms=-20.81
pitch_keycenter=E1
sample=Contrabassoon_trill_semitone_FF_E2.opus
</region>

<region>
hikey=D#4
hivel=127
lokey=C#3
lovel=1
lpc=xOaLQiOzJ8PQ0RtDqz/VwqFjhUL/5JPBYGctQROehsE1JYtAj/+zQLyTMcBGYVJAOWCHwNVlPcCmUf5AAX0FwSSGC0HXkCTBlLgBQcFeIcARxze/OmVuQPAL88CMuZVA
lpc_rms=-20.58
pitch_keycenter=D3
sample=Contrabassoon_trill_semitone_FF_D4.opus
</region>

<region>
hikey=D2
hivel=127
lokey=C#2
lovel=1
lpc=34cwQsMN2MLsms9CrACPwvMAK0I8CyvBzX4NQfPLcsGwkt1AuGwhv143uD9ZnKC/lZzIvxMuBkA7Yru/jqm2P+SnT8DDXohA/O5hwOWejkBn4QjAivY2v90VG8DPby1A
lpc_rms=-19.57
pitch_keycenter=D2
sample=Contrabassoon_trill_semitone_FF_D3.opus
</region>

<region>
hikey=D1
hivel=127
lokey=C#1
lovel=1
lpc=NLxbQu7LA8M9nPxCdOGxwpWEgUI9x0rCOA1KQtc1BMLv5TVAJIAtQSN/K8E3MnpBL1OfwYGAS0Fd8qi/hzoLwA+PIkDZSrW/8bzVPm/53MBQlBBBJnmCwEquXD6PNi8/
lpc_rms=-18.19
pitch_keycenter=D1
sample=Contrabassoon_trill_semitone_FF_D2.opus
</region>

<region>
hikey=C3
hivel=127
lokey=B2
lovel=1
lpc=yoF8QrfRDsNqAMpCAEQ4wjQjJ0IqiyPBUqK4PlyJWMHShgxBDnlywFDZN78TfoxA/bDXP1jiy8CXMYY/sLxNQEsKi8CYcF9Ad2IUvwEXOkAFuuq+/neEwJhE4r9YUlhA
lpc_rms=-23.57
pitch_keycenter=C3
sample=Contrabassoon_trill_semitone_FF_C4.opus
</region>

<region>
hikey=C2
hivel=127
lokey=B1
lovel=1
lpc=2NhXQjtm+sK+ktpCop6dwiKXg0KtNhDCHY2/QYdNm8GK30xBk8HMvyH0KMGTozFBjPwRwRuEgUCue19ArR/KwOh9n0Ci7rvAYvfkQBDmacAWoRRAqGiZwECudEBsCEe/
lpc_rms=-19.22
pitch_keycenter=C2
sample=Contrabassoon_trill_semitone_FF_C3.opus
</region>

<region>
hivel=127
key=C1
lovel=1
lpc=VMsgQmN+usKTfbNC5uOIwr1BWUKKHTvCx3wvQpUP4sEFD1RBUlKywFp1TD8GAydAXv/6vzDF0MBgF1tByr04wYMQH0HGzBDBWCOAQOcRKr8Dq66+2eJgvyUiNz8BFyI/
lpc_rms=-16.52
sample=Contrabassoon_trill_semitone_FF_C2.opus
</region>

<region>
hikey=A#2
hivel=127
lokey=A2
lovel=1
lpc=F7JJQv6A5cICV8pCP/2Kwv+fPEJ8NqLBIAhxQaA6lsEIJq9B/XWjwXf+jUFCsETBzhc5PypUlD1oMLZAH6CowGlqL0CYnl+/ckeIvtBaFEDQUifAlO8PPy32FsBwOiVA
lpc_rms=-19.13
pitch_keycenter=A#2
sample=Contrabassoon_trill_semitone_FF_A#3.opus
</region>

<region>
hikey=A#1
hivel=127
lokey=A1
lovel=1
lpc=u5ItQu9mu8LycJlCyuRWwsGKH0I9LZfBkYEgQXgdE8B5P6K/1V5CP7RnMECu43XA/cisPzTNt8B16wpB65qbwNbx+T+eyhc+V8egvrQgLT87VB3AQowdQK8mrsCdmopA
lpc_rms=-19.96
pitch_keycenter=A#1
sample=Contrabassoon_trill_semitone_FF_A#2.opus
</region>
</group>

<group>
group_label=Group_46-90
lpc_hicc1=127
lpc_locc1=85

<region>
hikey=G#2
hivel=127
lokey=G2
lovel=1
lpc=w5pbQoZiBsP1XA1DxKTqwpE1nUIycwLC+KB2QbgjFcEVuPZA6Zucv/fWdsCMIppAKsHZwH5NtEAgDAnB6dsxQe8zBcECTMRAJhGVwLRDzT/CqAFAn1FqwJIdzj49ba0/
lpc_rms=-23.33
pitch_keycenter=G#2
sample=Contrabassoon_trill_semitone_MF_G#3.opus
</region>

<region>
hikey=G#1
hivel=127
lokey=G1
lovel=1
lpc=LfY0QtAx1sKYQddCnKCxwu+3cUKD5b7BJgtWQYvdW8G/uYlB9qRkwTcd/kCC56XAQYTiP4+4Yj/xVnDA0gmdQBU1ZcDC6JNAnFPWwAI3jEBkkmm/T8CXPjbdBcA36eQ/
lpc_rms=-23.08
pitch_keycenter=G#1
sample=Contrabassoon_trill_semitone_MF_G#2.opus
</region>

<region>
hikey=F#2
hivel=127
lokey=F2
lovel=1
lpc=+uHLQlrbasNUXkFDaMf/wt7B0UKjsF3CdKBIQqPlR8JjKOxB4zKCwdJclEBBS1VBGIuVwQAkykAp28TAbPtqQKIo10Dd97HACAAXwBxXOEATIJhAsXzxwG3HFECCAx8/
lpc_rms=-20.33
pitch_keycenter=F#2
sample=Contrabassoon_trill_semitone_MF_F#3.opus
</region>

<region>
hikey=F#1
hivel=127
lokey=F1
lovel=1
lpc=4yGwQqGwRsNr9xxDqCPfwheV5EJRG4jCskQ9QoWFM8KNT7xBzL9GwaoqB0Hdpm9Ano8Pwd96Yz+GASZAT1AJQBjRJsFHHn1B3DyFwWb+XUGdEyjBWxQLQbyonMCO75A/
lpc_rms=-22.46
pitch_keycenter=F#1
sample=Contrabassoon_trill_semitone_MF_F#2.opus
</region>

<region>
hikey=E2
hivel=127
lokey=D#2
lovel=1
lpc=MS6VQmHwK8OJdx5D0yMCw6hT1ULvtnLCHDM2Qripx8Eaqx9BFWaRwW6cs0FX3VrBQVa/QI4UJ8EnswdBfib6vwYNWMCTs+tAaBbxwATRLkHIa1fBr/t/QXQ2lcFw4BNB
lpc_rms=-21.94
pitch_keycenter=E2
sample=Contrabassoon_trill_semitone_MF_E3.opus
</region>

<region>
hikey=E1
hivel=127
lokey=D#1
lovel=1
lpc=tUqyQiWnbMMTgIJDMMlVw43OI0MeMsHCIkd0QjB8NMI3lvtB0DLuwbMI1EFtX2LBfpkqQRA6CcEJDbi/1hyjQBsN5MDhnbVA3j8Kv3lNTEBcPaLAWKteQDBUs8AaRmdA
lpc_rms=-22.94
pitch_keycenter=E1
sample=Contrabassoon_trill_semitone_MF_E2.opus
</region>

<region>
hikey=D#4
hivel=127
lokey=C#3
lovel=1
lpc=ZyhyQjRyGcMeWxxDjOXhwtPNl0L90A3CxC3LQbCX7sE2X4xBoBEzwecej0E6JmnB8as2QV8VhcHQlWdBo0mwwGa1F8CqwPtAZ3sdwaQ0LkGFoy/Bcq8XQdUTEMFDrZRA
lpc_rms=-23.78
pitch_keycenter=D3
sample=Contrabassoon_trill_semitone_MF_D4.opus
</region>

<region>
hikey=D2
hivel=127
lokey=C#2
lovel=1
lpc=6vN2Qg2TG8NS0h9DTK3zwuvWpkIloQjCapaLQR4Tk8FzvhRBfXjvv3aaVkCQfb+/fmcIwP6LHMBYx+BAIAt6wExPCsAN6DNAuWSQvwL1TEDbi53AXAzPQO7WE8E566dA
lpc_rms=-22.03
pitch_keycenter=D2
sample=Contrabassoon_trill_semitone_MF_D3.opus
</region>

<region>
hikey=D1
hivel=127
lokey=C#1
lovel=1
lpc=spOiQrV0OMMYzhVDCz7MwpTY0kL7U5vCiK1QQri8J8J9H8FBu8iJwbAzlUEwQUbBLpqIQezGVMH3sv0/wNJgwIlWI8CFIAJB3XluwPvLn0BBo/3AsyBkQH+Up790IaY/
lpc_rms=-20.82
pitch_keycenter=D1
sample=Contrabassoon_trill_semitone_MF_D2.opus
</region>

<region>
hikey=C3
hivel=127
lokey=B2
lovel=1
lpc=S0iNQmjDHMMin9hC9H5MwgulOUJuxB7BaFzgvx/+FsH3Rw5B5odPwXlv0UBZnGlAOmacvYahM0BXvKXAuACwv8iWIsCNSahA6+24v/5HgkDn1a/A8fNDQByoiMDmwURA
lpc_rms=-25.67
pitch_keycenter=C3
sample=Contrabassoon_trill_semitone_MF_C4.opus
</region>

<region>
hikey=C2
hivel=127
lokey=B1
lovel=1
lpc=OuuGQkleI8P3BSZDxnQPwwUA+kKmea/Cx3lzQtYyQsKKFSpCc2Z+wUh6iz4MIck/kujiwLtiw0D32DDBuJX0QH29bL+QCkG/5oGsQJNKUL+1Xh3AXCOUwMjVl0Dido6+
lpc_rms=-24.01
pitch_keycenter=C2
sample=Contrabassoon_trill_semitone_MF_C3.opus
</region>

<region>
hivel=127
key=C1
lovel=1
lpc=Cpu9Qv1AV8M3yC9DwbLIwp5Bg0IdZPjBA1LNQXnhssHh9g5BH8wyv+JD3MBGKy9BV9jHwAyh1UBPONg/1CcIwX+8Oz9GiDG/5xE3v6EiB0BopPQ/2HKZwG15aEADvJ6+
lpc_rms=-18.40
sample=Contrabassoon_trill_semitone_MF_C2.opus
</region>

<region>
hikey=A#2
hivel=127
lokey=A2
lovel=1
lpc=L+1wQs/wB8MQfftCeivLwudcn0LOyCDCJuirQVEWkcE4xJJBTT+LwYWUk0ENz1nBzIjLP6yJyD+DE+M/cK0OwBzHfEAt8CrA15+Dv0zPPD98EsO+owD0P4+uvcCCfY9A
lpc_rms=-20.52
pitch_keycenter=A#2
sample=Contrabassoon_trill_semitone_MF_A#3.opus
</region>

<region>
hikey=A#1
hivel=127
lokey=A1
lovel=1
lpc=Ks9LQk913MLnXMtCtj2wwnGWikJUlRTCA2TCQWowu8G2o7NBmsaBwU20bUHsph3Bbh4nv425bkCZtAtApi1twDxkUUD926c/3AUSwa76KEHgyBfBzh3JQAr8J8HMrwVB
lpc_rms=-22.93
pitch_keycenter=A#1
sample=Contrabassoon_trill_semitone_MF_A#2.opus
</region>
</group>